<svg id="Capa_1" xmlns="http://www.w3.org/2000/svg" width="685.1" height="908.9"
	 viewBox="0 0 685.1 908.9">
	<linearGradient id="SVGID_1_" gradientUnits="userSpaceOnUse" y1="62.488"
					x2="685.235" y2="62.488" gradientTransform="translate(0 392)">
		<stop offset="0" stopColor="#ef8c99" />
		<stop offset="1" stopColor="#7127ac" />
	</linearGradient>
	<path fill="url(#SVGID_1_)" d="M405.3,352l42.5,42l-0.3-84.3c0-0.5,0-1.2,0-2c0-24.4,6.2-173.3,151.4-295.3	c22.2-18.7,55.3-15.8,74,6.4s15.8,55.3-6.4,74c-49.3,41.5-83.5,91.1-101.7,147.5c-12.6,39.2-12.3,66.8-12.3,67.1v1.6l0.3,85.6	l41.4-41.9c20.4-20.6,53.6-20.8,74.2-0.4c20.6,20.4,20.8,53.6,0.4,74.2L539,557.9c-20.4,20.6-53.6,20.8-74.2,0.4L331.5,426.7	c-10.4-10.3-15.6-23.8-15.6-37.3c0-13.3,5-26.7,15.2-36.9C351.4,331.8,384.7,331.6,405.3,352z M86.5,896.4	c148.5-126.3,150.4-281.1,150.1-298v-71.1l41.7,42.3c20.4,20.6,53.6,20.8,74.2,0.4c20.6-20.4,20.8-53.6,0.4-74.2L223.1,364.2	c-20.4-20.6-53.6-20.8-74.2-0.4L15.6,495.5C5.2,505.8,0,519.3,0,532.8c0,13.3,5,26.7,15.2,36.9c20.4,20.6,53.6,20.8,74.2,0.4	l42.2-41.7v70.4v0.5l0.1,1.1c0,2.7-0.2,32.1-13.6,72c-18.4,55-51.9,103.4-99.6,144C6.3,826.8,0,841.6,0,856.4c0,12,4.1,24.1,12.5,34	C31.3,912.5,64.4,915.2,86.5,896.4z"
	/>
</svg>