<svg width="237" height="134" viewBox="0 0 237 134" fill="none" xmlns="http://www.w3.org/2000/svg">
    <path d="M213.968 63.876C214.962 63.275 216.02 62.82 217.111 62.51L217.758 59.399L223.015 59.307L223.771 62.393C224.873 62.664 225.946 63.082 226.961 63.648L229.618 61.907L233.4 65.559L231.753 68.275C232.354 69.269 232.809 70.328 233.119 71.419L236.23 72.066L236.322 77.323L233.236 78.08C232.965 79.181 232.547 80.255 231.981 81.269L233.722 83.926L230.071 87.708L227.355 86.061C226.361 86.662 225.303 87.117 224.211 87.427L223.563 90.538L218.307 90.63L217.55 87.543C216.449 87.272 215.375 86.853 214.361 86.288L211.704 88.029L207.922 84.377L209.569 81.661C208.968 80.667 208.513 79.609 208.203 78.517L205.092 77.87L205 72.613L208.087 71.856C208.358 70.755 208.777 69.681 209.342 68.667L207.601 66.01L211.253 62.228L213.968 63.876ZM216.77 70.879C214.606 73.12 214.669 76.69 216.91 78.854C219.151 81.017 222.721 80.955 224.885 78.714C227.048 76.473 226.986 72.903 224.745 70.739C222.504 68.575 218.933 68.638 216.77 70.879Z"
          fill="#DDDDDD"/>
    <path d="M205.611 15.84C206.011 15.598 206.437 15.415 206.877 15.29L207.138 14.037L209.255 14L209.56 15.243C210.004 15.352 210.436 15.521 210.844 15.748L211.914 15.047L213.437 16.518L212.774 17.612C213.016 18.012 213.199 18.439 213.324 18.878L214.577 19.139L214.614 21.256L213.371 21.561C213.262 22.005 213.093 22.437 212.866 22.845L213.567 23.915L212.097 25.438L211.003 24.775C210.603 25.017 210.177 25.2 209.737 25.325L209.476 26.578L207.359 26.615L207.054 25.372C206.61 25.263 206.178 25.094 205.77 24.867L204.7 25.568L203.177 24.097L203.84 23.003C203.598 22.603 203.415 22.177 203.29 21.737L202.037 21.476L202 19.359L203.243 19.054C203.352 18.61 203.521 18.178 203.748 17.77L203.047 16.7L204.517 15.177L205.611 15.84ZM206.739 18.66C205.868 19.562 205.893 21 206.795 21.872C207.697 22.743 209.135 22.718 210.006 21.815C210.877 20.913 210.852 19.475 209.95 18.604C209.048 17.732 207.611 17.758 206.739 18.66Z"
          fill="#C4C4C4"/>
    <path d="M168.525 26.138C169.166 25.751 169.848 25.457 170.551 25.258L170.968 23.252L174.356 23.193L174.844 25.182C175.554 25.357 176.246 25.626 176.9 25.991L178.612 24.868L181.05 27.222L179.989 28.973C180.376 29.614 180.67 30.296 180.869 31L182.874 31.417L182.934 34.805L180.945 35.293C180.77 36.003 180.501 36.695 180.136 37.349L181.258 39.062L178.904 41.5L177.153 40.438C176.512 40.825 175.83 41.119 175.127 41.318L174.71 43.324L171.322 43.383L170.834 41.394C170.124 41.219 169.432 40.949 168.778 40.585L167.066 41.708L164.628 39.354L165.689 37.603C165.302 36.962 165.008 36.28 164.808 35.577L162.803 35.16L162.744 31.772L164.733 31.284C164.908 30.574 165.178 29.882 165.542 29.228L164.42 27.515L166.774 25.077L168.525 26.138ZM170.331 30.652C168.936 32.096 168.977 34.398 170.421 35.792C171.865 37.187 174.167 37.146 175.561 35.702C176.955 34.258 176.915 31.956 175.471 30.562C174.027 29.167 171.726 29.207 170.331 30.652Z"
          fill="#EAEAEA"/>
    <path d="M132.551 77.776C134.575 76.553 136.729 75.626 138.951 74.994L140.269 68.659L150.973 68.471L152.513 74.755C154.756 75.308 156.942 76.159 159.008 77.31L164.418 73.764L172.119 81.2L168.766 86.73C169.989 88.754 170.917 90.91 171.547 93.132L177.882 94.45L178.07 105.153L171.786 106.694C171.233 108.937 170.382 111.122 169.231 113.188L172.776 118.598L165.341 126.3L159.811 122.947C157.787 124.17 155.632 125.097 153.41 125.728L152.091 132.063L141.388 132.251L139.847 125.966C137.604 125.413 135.419 124.562 133.353 123.411L127.943 126.957L120.241 119.521L123.594 113.991C122.371 111.967 121.443 109.812 120.812 107.59L114.477 106.272L114.289 95.569L120.574 94.028C121.127 91.785 121.978 89.6 123.129 87.534L119.584 82.124L127.019 74.422L132.551 77.776ZM138.256 92.035C133.851 96.598 133.978 103.868 138.541 108.273C143.104 112.678 150.374 112.55 154.779 107.987C159.184 103.424 159.057 96.154 154.494 91.749C149.932 87.344 142.662 87.472 138.256 92.035Z"
          stroke="#EAEAEA" stroke-width="2" stroke-miterlimit="10"/>
    <path d="M87.945 25.536C89.015 24.889 90.155 24.399 91.33 24.065L92.027 20.715L97.687 20.616L98.502 23.939C99.688 24.231 100.844 24.681 101.937 25.29L104.798 23.415L108.871 27.348L107.098 30.272C107.745 31.343 108.235 32.482 108.569 33.657L111.919 34.354L112.018 40.014L108.695 40.829C108.403 42.015 107.953 43.171 107.344 44.263L109.219 47.124L105.287 51.197L102.362 49.424C101.292 50.071 100.152 50.561 98.977 50.895L98.28 54.245L92.62 54.344L91.805 51.02C90.619 50.728 89.463 50.277 88.371 49.669L85.51 51.544L81.437 47.612L83.21 44.688C82.563 43.617 82.073 42.478 81.739 41.303L78.389 40.606L78.29 34.946L81.614 34.131C81.906 32.945 82.357 31.789 82.965 30.697L81.09 27.836L85.022 23.763L87.945 25.536ZM90.962 33.076C88.632 35.489 88.7 39.334 91.113 41.663C93.526 43.993 97.371 43.925 99.7 41.512C102.029 39.099 101.962 35.254 99.549 32.925C97.136 30.596 93.292 30.663 90.962 33.076Z"
          fill="#C4C4C4"/>
    <path d="M17.472 35.174C19.187 34.138 21.012 33.352 22.895 32.817L24.012 27.449L33.081 27.29L34.386 32.615C36.287 33.083 38.139 33.804 39.889 34.78L44.472 31.776L50.997 38.077L48.156 42.762C49.193 44.477 49.978 46.303 50.513 48.186L55.88 49.303L56.039 58.372L50.714 59.677C50.246 61.577 49.525 63.429 48.549 65.179L51.553 69.763L45.253 76.288L40.567 73.447C38.852 74.483 37.026 75.269 35.143 75.803L34.026 81.171L24.957 81.33L23.652 76.005C21.752 75.537 19.9 74.815 18.15 73.84L13.567 76.844L7.042 70.544L9.883 65.859C8.847 64.144 8.061 62.319 7.526 60.435L2.159 59.318L2 50.249L7.325 48.943C7.793 47.043 8.515 45.191 9.49 43.441L6.486 38.857L12.786 32.332L17.472 35.174ZM22.307 47.255C18.574 51.121 18.683 57.281 22.549 61.014C26.415 64.747 32.575 64.638 36.307 60.772C40.039 56.906 39.931 50.746 36.065 47.014C32.199 43.281 26.039 43.389 22.307 47.255Z"
          stroke="#EAEAEA" stroke-width="2" stroke-miterlimit="10"/>
    <path d="M56.626 89.335C57.398 88.868 58.22 88.515 59.068 88.274L59.571 85.857L63.655 85.785L64.243 88.183C65.099 88.394 65.933 88.719 66.721 89.158L68.785 87.805L71.724 90.642L70.445 92.752C70.912 93.524 71.266 94.347 71.506 95.195L73.923 95.698L73.995 99.782L71.597 100.37C71.386 101.226 71.061 102.06 70.622 102.848L71.975 104.912L69.138 107.851L67.028 106.572C66.256 107.039 65.433 107.392 64.586 107.633L64.083 110.05L59.999 110.122L59.411 107.724C58.555 107.513 57.721 107.188 56.933 106.749L54.869 108.102L51.93 105.265L53.209 103.155C52.742 102.383 52.388 101.561 52.148 100.713L49.731 100.21L49.659 96.126L52.057 95.538C52.268 94.682 52.593 93.848 53.032 93.06L51.679 90.996L54.516 88.057L56.626 89.335ZM58.804 94.776C57.123 96.517 57.172 99.291 58.913 100.972C60.654 102.653 63.428 102.604 65.109 100.863C66.79 99.122 66.741 96.348 65 94.667C63.258 92.986 60.484 93.035 58.804 94.776Z"
          fill="#DDDDDD"/>
    <path d="M67.623 3.16198C68.264 2.77498 68.946 2.48098 69.649 2.28198L70.066 0.27598L73.454 0.21698L73.942 2.20598C74.652 2.38098 75.344 2.64998 75.998 3.01498L77.71 1.89198L80.148 4.24598L79.087 5.99698C79.474 6.63798 79.768 7.31998 79.968 8.02398L81.973 8.44098L82.033 11.829L80.044 12.317C79.869 13.027 79.6 13.719 79.235 14.373L80.357 16.086L78.003 18.524L76.252 17.462C75.611 17.849 74.929 18.143 74.226 18.342L73.809 20.348L70.421 20.407L69.933 18.418C69.223 18.243 68.531 17.973 67.877 17.609L66.165 18.732L63.727 16.378L64.788 14.627C64.401 13.986 64.107 13.304 63.907 12.601L61.902 12.184L61.843 8.79598L63.832 8.30798C64.007 7.59798 64.277 6.90598 64.641 6.25198L63.519 4.53898L65.873 2.10098L67.623 3.16198ZM69.429 7.67598C68.034 9.11998 68.075 11.422 69.519 12.816C70.963 14.211 73.265 14.17 74.659 12.726C76.053 11.282 76.013 8.97998 74.569 7.58598C73.125 6.19098 70.824 6.23198 69.429 7.67598Z"
          fill="#EAEAEA"/>
    <path d="M74.918 42.231L71.911 35.31C73.833 32.826 75.113 29.796 75.471 26.444C76.499 16.804 69.517 8.15497 59.877 7.12797C50.237 6.09997 41.588 13.082 40.561 22.722C39.533 32.362 46.515 41.01 56.155 42.038C60.18 42.467 64.03 41.496 67.227 39.522L67.22 39.529L74.918 42.231Z"
          stroke="#5C5C5C" stroke-width="2" stroke-miterlimit="10" stroke-linejoin="round"/>
    <path d="M63.845 19.69L64.539 20.456L67.343 17.974C67.343 17.974 68.427 20.185 66.185 21.966C64.939 22.955 63.764 22.75 63.045 22.447L55.466 29.823C55.715 30.559 55.87 31.829 54.685 33.03C52.702 35.04 50.573 33.726 50.601 33.745L53.369 31.224L52.762 30.535L52.758 30.538L52.064 29.772L49.26 32.254C49.26 32.254 48.176 30.043 50.418 28.262C51.664 27.273 52.839 27.478 53.558 27.781L53.572 27.796L61.143 20.423C60.89 19.689 60.724 18.409 61.919 17.198C63.931 15.16 66.003 16.483 66.003 16.483L63.235 19.004L63.842 19.693L63.845 19.69Z"
          fill="#864DD9" stroke="#864DD9" stroke-width="0.5"/>
    <path d="M151.759 47.996C151.723 46.772 150.861 45.727 149.64 45.565C143.984 44.791 138.399 43.422 132.922 41.424C127.481 39.407 121.447 36.616 114.947 32.943C114.121 32.475 113.349 32.475 112.523 32.943C106.058 36.616 100.079 39.407 94.584 41.424C89.107 43.423 83.522 44.791 77.902 45.565C76.681 45.727 75.837 46.771 75.693 47.996C75.154 71.116 80.2 90.04 90.795 104.751C96.559 112.764 103.796 119.264 112.505 124.234C113.187 124.738 114.229 124.684 115.019 124.234C123.674 119.192 130.893 112.728 136.639 104.751C147.27 90.04 152.28 71.116 151.759 47.996Z"
          fill="#3F3652"/>
    <path opacity="0.2"
          d="M128.092 55.2C124.375 58.801 111.446 71.515 111.446 71.515C111.446 71.515 110.44 100.543 109.525 105.081L123.154 118.749C128.308 114.733 132.797 110.087 136.64 104.757C144.092 94.439 148.779 82.05 150.736 67.59C143.194 63.447 135.634 59.324 128.092 55.2Z"
          fill="url(#paint0_linear)"/>
    <path d="M118.736 70.344L110.458 70.146L126.278 55.812C127.086 55.002 128.415 55.056 129.151 55.938L132.491 59.9C132.814 60.566 132.742 61.341 132.311 61.935L127.121 68.994C125.165 71.659 122.022 70.398 118.736 70.344Z"
          fill="#A73D74"/>
    <path d="M117.767 99.282L111.572 104.738C110.315 105.854 108.322 104.954 108.322 103.261V69.768L117.426 75.404C118.001 75.764 118.342 76.394 118.36 77.061L118.432 97.788C118.431 98.382 118.198 98.922 117.767 99.282Z"
          fill="#D14C8F"/>
    <path d="M118.359 88.658V77.061C118.359 76.395 118.018 75.783 117.461 75.422L99.953 64.077L95.158 70.542C94.494 71.442 94.709 72.721 95.643 73.333L118.359 88.658Z"
          fill="#A73D74"/>
    <path d="M124.285 71.659H95.644C94.908 71.659 94.656 71.173 95.087 70.579L100.905 62.35C101.264 61.828 101.875 61.522 102.503 61.522H132.078C132.276 61.522 132.617 61.522 132.491 61.684L125.865 70.85C125.488 71.371 124.914 71.659 124.285 71.659Z"
          fill="#D14C8F"/>
    <path d="M200.638 76.9651L173.38 59.3651C175.73 54.5611 176.541 49.1621 175.657 43.7781C174.532 36.9251 170.805 30.9221 165.164 26.8731C159.531 22.8311 152.654 21.2251 145.79 22.3511C138.93 23.4791 132.925 27.2011 128.883 32.8341C124.834 38.4751 123.225 45.3561 124.35 52.2091C125.476 59.0611 129.203 65.0641 134.844 69.1131C139.282 72.2981 144.512 73.9801 149.969 73.9801C157.726 73.9801 165.073 70.5061 169.984 64.6131L197.248 82.2161C197.76 82.5461 198.342 82.7171 198.937 82.7171C199.158 82.7171 199.379 82.6941 199.601 82.6461C200.416 82.4701 201.118 81.9891 201.568 81.2871C202.586 79.6991 202.048 78.2021 202.065 77.6551C202.099 76.5921 201.593 77.5831 200.638 76.9651ZM168.923 61.5721C165.296 66.6261 159.918 69.9651 153.779 70.9731C147.641 71.9821 141.476 70.5401 136.422 66.9111C131.369 63.2851 128.03 57.9071 127.022 51.7671C126.013 45.6281 127.456 39.4641 131.083 34.4111C135.444 28.3371 142.529 24.7111 150.036 24.7111C154.925 24.7111 159.609 26.2191 163.583 29.0711C168.638 32.6981 171.977 38.0761 172.985 44.2151C173.992 50.3551 172.55 56.5191 168.923 61.5721Z"
          fill="#303030"/>
    <path d="M200.638 74.9651L173.38 57.3651C175.73 52.5611 176.541 47.1621 175.657 41.7781C174.532 34.9251 170.805 28.9221 165.164 24.8731C159.531 20.8311 152.654 19.2241 145.79 20.3511C138.93 21.4791 132.925 25.2011 128.883 30.8341C124.834 36.4751 123.225 43.3561 124.35 50.2091C125.476 57.0611 129.203 63.0641 134.844 67.1131C139.282 70.2981 144.512 71.9801 149.969 71.9801C157.726 71.9801 165.073 68.5061 169.984 62.6131L197.248 80.2161C197.76 80.5461 198.342 80.7171 198.937 80.7171C199.158 80.7171 199.379 80.6941 199.601 80.6461C200.416 80.4701 201.116 79.9881 201.568 79.2871C202.502 77.8381 202.085 75.9011 200.638 74.9651ZM168.923 59.5721C165.296 64.6261 159.918 67.9651 153.779 68.9731C147.641 69.9821 141.476 68.5401 136.423 64.9121C131.369 61.2861 128.03 55.9071 127.022 49.7681C126.014 43.6291 127.456 37.4651 131.083 32.4121C135.444 26.3381 142.529 22.7121 150.036 22.7121C154.925 22.7121 159.609 24.2201 163.583 27.0721C168.638 30.6991 171.977 36.0771 172.985 42.2161C173.992 48.3551 172.55 54.5191 168.923 59.5721Z"
          fill="#5C5C5C"/>
    <path opacity="0.75"
          d="M130.456 49.532C130.44 49.536 130.366 49.262 130.245 48.76C130.18 48.51 130.112 48.202 130.067 47.838C130.017 47.475 129.937 47.064 129.919 46.602C129.903 46.37 129.887 46.129 129.87 45.879C129.855 45.627 129.869 45.365 129.868 45.093C129.855 44.549 129.916 43.971 129.965 43.361C130.11 42.148 130.377 40.825 130.823 39.484C131.285 38.149 131.879 36.936 132.503 35.885C132.835 35.372 133.139 34.876 133.48 34.452C133.646 34.237 133.796 34.021 133.96 33.83C134.126 33.641 134.286 33.46 134.439 33.286C134.734 32.93 135.049 32.653 135.309 32.395C135.566 32.134 135.808 31.931 136.012 31.772C136.413 31.447 136.638 31.275 136.649 31.288C136.659 31.301 136.454 31.499 136.075 31.843C135.882 32.012 135.651 32.223 135.405 32.492C135.156 32.757 134.853 33.04 134.569 33.399C134.421 33.575 134.267 33.758 134.107 33.948C133.948 34.14 133.804 34.357 133.643 34.572C133.312 34.996 133.019 35.491 132.696 36C132.09 37.044 131.511 38.244 131.054 39.561C130.614 40.884 130.344 42.188 130.189 43.385C130.135 43.986 130.067 44.557 130.071 45.095C130.068 45.363 130.05 45.623 130.059 45.872C130.07 46.12 130.081 46.359 130.092 46.589C130.098 47.047 130.166 47.456 130.203 47.818C130.235 48.181 130.29 48.489 130.34 48.741C130.43 49.246 130.472 49.528 130.456 49.532Z"
          fill="white" stroke="#F7F7F7"/>
    <path d="M141.536 49.085C141.536 49.152 140.17 49.207 138.485 49.207C138.467 49.207 138.449 49.207 138.433 49.207L138.509 49.18C137.214 50.222 136.138 51.018 136.097 50.966C136.055 50.914 137.063 50.033 138.357 48.99L138.39 48.963H138.433C138.449 48.963 138.467 48.963 138.485 48.963C140.17 48.964 141.536 49.018 141.536 49.085Z"
          fill="#303030" stroke="#303030"/>
    <path d="M143.485 55.24C143.501 55.27 143.158 55.483 142.591 55.803C142.024 56.123 141.234 56.55 140.353 57.009C140.171 57.103 139.993 57.195 139.822 57.284L139.874 57.231C139.112 58.753 138.494 59.891 138.44 59.865C138.386 59.838 138.914 58.656 139.659 57.125L139.676 57.09L139.711 57.072C139.882 56.982 140.059 56.889 140.241 56.794C141.121 56.336 141.924 55.933 142.512 55.652C143.099 55.369 143.47 55.21 143.485 55.24Z"
          fill="#303030" stroke="#303030"/>
    <path d="M156.229 43.573C156.218 43.541 156.586 43.38 157.191 43.144C157.796 42.908 158.637 42.599 159.571 42.271C159.673 42.235 159.773 42.2 159.868 42.167L159.817 42.202C160.42 41.51 160.966 40.902 161.368 40.471C161.77 40.041 162.026 39.788 162.051 39.809C162.075 39.83 161.862 40.12 161.494 40.579C161.125 41.038 160.601 41.665 160.002 42.361L159.981 42.385L159.95 42.396C159.856 42.429 159.755 42.465 159.654 42.501C158.72 42.829 157.87 43.113 157.25 43.307C156.629 43.501 156.24 43.605 156.229 43.573Z"
          fill="#303030" stroke="#303030"/>
    <path d="M143.872 43.573C143.883 43.541 143.515 43.38 142.91 43.144C142.305 42.908 141.464 42.599 140.53 42.271C140.428 42.235 140.328 42.2 140.233 42.167L140.284 42.202C139.681 41.51 139.135 40.902 138.733 40.471C138.331 40.041 138.075 39.788 138.05 39.809C138.026 39.83 138.239 40.12 138.607 40.579C138.976 41.038 139.5 41.665 140.099 42.361L140.12 42.385L140.151 42.396C140.245 42.429 140.346 42.465 140.447 42.501C141.381 42.829 142.231 43.113 142.851 43.307C143.473 43.501 143.861 43.605 143.872 43.573Z"
          fill="#303030" stroke="#303030"/>
    <path d="M158.178 49.085C158.178 49.018 159.544 48.963 161.229 48.963C161.247 48.963 161.265 48.963 161.281 48.963H161.324L161.357 48.99C162.651 50.033 163.658 50.914 163.617 50.966C163.575 51.018 162.5 50.221 161.205 49.18L161.281 49.207C161.265 49.207 161.247 49.207 161.229 49.207C159.545 49.207 158.178 49.153 158.178 49.085Z"
          fill="#303030" stroke="#303030"/>
    <path d="M156.229 55.24C156.245 55.21 156.615 55.369 157.203 55.65C157.79 55.931 158.593 56.334 159.474 56.792C159.655 56.887 159.832 56.98 160.004 57.07L160.039 57.088L160.056 57.123C160.801 58.654 161.329 59.836 161.275 59.863C161.221 59.89 160.603 58.752 159.841 57.229L159.893 57.282C159.721 57.193 159.543 57.101 159.362 57.007C158.482 56.549 157.691 56.121 157.124 55.801C156.556 55.482 156.214 55.27 156.229 55.24Z"
          fill="#303030" stroke="#303030"/>
    <path d="M147.582 35.688C147.534 35.736 147.043 35.32 146.485 34.761C145.926 34.201 145.512 33.709 145.56 33.662C145.608 33.615 146.099 34.03 146.658 34.589C147.216 35.148 147.63 35.64 147.582 35.688Z"
          fill="#303030" stroke="#303030"/>
    <path d="M153.455 35.78C153.408 35.732 153.824 35.242 154.386 34.686C154.948 34.129 155.441 33.717 155.488 33.764C155.535 33.812 155.119 34.302 154.557 34.859C153.996 35.416 153.502 35.828 153.455 35.78Z"
          fill="#303030" stroke="#303030"/>
    <path d="M150.524 44.608C153.266 44.608 155.488 42.3856 155.488 39.644C155.488 36.9025 153.266 34.68 150.524 34.68C147.782 34.68 145.56 36.9025 145.56 39.644C145.56 42.3856 147.782 44.608 150.524 44.608Z"
          fill="#303030"/>
    <path d="M150.2 58.192C155.23 58.192 159.307 54.1147 159.307 49.085C159.307 44.0554 155.23 39.978 150.2 39.978C145.17 39.978 141.093 44.0554 141.093 49.085C141.093 54.1147 145.17 58.192 150.2 58.192Z"
          fill="#864DD9"/>
    <path opacity="0.75"
          d="M149 55.9935C148.999 56.0044 148.847 56.0044 148.573 55.9709C148.301 55.9382 147.909 55.8581 147.448 55.6992C146.527 55.3909 145.341 54.6871 144.472 53.5785C143.604 52.4691 143.235 51.2663 143.097 50.4076C143.026 49.9747 143.002 49.622 143 49.3784C142.998 49.1347 143.011 49 143.025 49C143.062 48.9984 143.069 49.538 143.245 50.3858C143.421 51.2274 143.805 52.3936 144.647 53.4703C145.49 54.5455 146.622 55.2438 147.505 55.5762C148.394 55.918 149.008 55.9554 149 55.9935Z"
          fill="#F7F7F7" stroke="#F7F7F7" stroke-width="0.5"/>
    <path d="M150.417 58.35C150.35 58.35 150.295 54.237 150.295 49.165C150.295 44.091 150.35 39.979 150.417 39.979C150.484 39.979 150.539 44.091 150.539 49.165C150.538 54.237 150.484 58.35 150.417 58.35Z"
          fill="#303030" stroke="#303030" stroke-width="0.4"/>
    <defs>
        <linearGradient id="paint0_linear" x1="108.425" y1="82.0378" x2="195.068" y2="106.906"
                        gradientUnits="userSpaceOnUse">
            <stop/>
            <stop offset="1" stop-opacity="0.7"/>
        </linearGradient>
    </defs>
</svg>
