<?xml version="1.0" encoding="utf-8"?>
<!-- Generator: Adobe Illustrator 23.1.0, SVG Export Plug-In . SVG Version: 6.00 Build 0)  -->
<svg version="1.1" id="Layer_1" xmlns="http://www.w3.org/2000/svg" xmlns:xlink="http://www.w3.org/1999/xlink" x="0px" y="0px"
	 width="144px" height="40px" viewBox="0 0 144 40" enable-background="new 0 0 144 40" xml:space="preserve">
<g>
	<path fill="#00364D" d="M53.235,27c-1.145,1.033-2.628,1.609-4.17,1.62c-2.573,0.183-4.807-1.754-4.99-4.327
		c-0.01-0.147-0.014-0.295-0.01-0.443c-0.098-1.749,0.938-3.363,2.57-4c1.223-0.52,2.524-0.831,3.85-0.92l2.58-0.21v-0.55
		c0-1.65-1.1-2.39-2.94-2.39c-1.352,0.059-2.671,0.436-3.85,1.1l-1.29-2.38c1.75-0.946,3.701-1.46,5.69-1.5c4,0,5.87,1.83,5.87,5.32
		v6.08c-0.098,1.295,0.028,2.597,0.37,3.85h-3.13L53.235,27z M50.845,21.5c-0.772-0.038-1.537,0.153-2.2,0.55
		c-0.573,0.352-0.922,0.977-0.92,1.65c-0.006,1.105,0.885,2.004,1.99,2.01c0.07,0,0.14-0.003,0.21-0.01
		c1.074-0.034,2.107-0.421,2.94-1.1v-3.13L50.845,21.5z"/>
	<path fill="#00364D" d="M58.745,21.1c0-4.77,3.49-7.89,8.07-7.89c0.672-0.03,1.344,0.031,2,0.18V6.24h3.67v21.47
		c-1.735,0.75-3.61,1.125-5.5,1.1C62.415,28.62,58.745,26.06,58.745,21.1z M68.835,25.32v-8.81c-0.596-0.159-1.214-0.22-1.83-0.18
		c-2.473-0.066-4.532,1.886-4.598,4.359c-0.004,0.137-0.001,0.274,0.008,0.411c-0.202,2.333,1.525,4.388,3.858,4.59
		c0.243,0.021,0.488,0.021,0.732,0C67.555,25.5,68.285,25.5,68.835,25.32z"/>
	<path fill="#00364D" d="M73.785,13.58h3.85l3.67,10.09l3.67-10.09h3.67l-6.05,14.86h-2.75L73.785,13.58z"/>
	<path fill="#009A61" d="M89.205,21.1c-0.095-4.263,3.284-7.795,7.547-7.889c0.104-0.002,0.209-0.003,0.313-0.001
		c1.382,0.029,2.744,0.342,4,0.92v3.12c-1.077-0.745-2.361-1.13-3.67-1.1c-2.75,0-4.4,2-4.4,4.77c0,3.12,1.65,4.77,4.22,4.77
		c1.224,0.004,2.427-0.314,3.49-0.92l1.1,2.57c-1.548,0.947-3.325,1.456-5.14,1.47c-4.07,0.054-7.413-3.201-7.467-7.271
		C89.196,21.392,89.198,21.246,89.205,21.1z"/>
	<path fill="#009A61" d="M111.585,27c-1.153,1.055-2.657,1.643-4.22,1.65c-2.573,0.183-4.807-1.754-4.99-4.327
		c-0.01-0.147-0.014-0.295-0.01-0.443c-0.098-1.749,0.938-3.363,2.57-4c1.223-0.52,2.524-0.831,3.85-0.92l2.57-0.18v-0.55
		c0-1.65-1.1-2.39-2.94-2.39c-1.352,0.059-2.671,0.436-3.85,1.1l-1.23-2.44c1.762-0.952,3.727-1.467,5.73-1.5
		c4,0,5.87,1.83,5.87,5.32v6.08c-0.098,1.295,0.028,2.597,0.37,3.85h-3.17L111.585,27z M109.195,21.5
		c-0.772-0.038-1.537,0.153-2.2,0.55c-0.568,0.344-0.919,0.956-0.93,1.62c-0.006,1.105,0.885,2.004,1.99,2.01
		c0.07,0,0.14-0.003,0.21-0.01c1.074-0.034,2.107-0.421,2.94-1.1v-3.1L109.195,21.5z"/>
	<path fill="#009A61" d="M117.825,24.4c1.185,0.797,2.572,1.241,4,1.28c1.47,0,2.57-0.37,2.57-1.65c0-2.57-7-1.65-7-6.42
		c0-2.57,2.2-4.4,5.69-4.4c1.494,0.034,2.975,0.279,4.4,0.73v3.12c-1.331-0.586-2.766-0.898-4.22-0.92c-1.28,0-2,0.37-2,1.28
		c0,2.39,7,1.47,7,6.61c0,3.3-2.75,4.59-6.06,4.59c-1.931,0.004-3.829-0.503-5.5-1.47L117.825,24.4z"/>
	<path fill="#009A61" d="M130.305,6.24h3.67v9c1.385-1.224,3.152-1.931,5-2c2.39,0,4.77,1.1,4.77,5.32v9.72h-3.68v-8.65
		c0-1.83-0.37-3.3-2.2-3.3c-1.392,0.114-2.702,0.704-3.71,1.67v10.26h-3.67v-22L130.305,6.24z"/>
	<circle fill="#009A61" cx="20.249" cy="20" r="20"/>
	<polygon fill="#FFFFFF" points="9.599,30.64 19.879,8.07 20.609,15.96 13.819,30.46 	"/>
	<polygon fill="#00364D" points="10.339,21.1 29.789,21.1 27.589,23.85 12.169,23.85 	"/>
	<polygon fill="#00364D" points="7.039,16.15 32.719,16.15 30.519,18.9 8.869,18.9 	"/>
	<polygon fill="#FFFFFF" points="30.149,30.64 19.879,8.07 19.149,15.96 25.929,30.46 	"/>
</g>
</svg>
