<?xml version="1.0" encoding="utf-8"?>
<!-- Generator: Adobe Illustrator 23.0.0, SVG Export Plug-In . SVG Version: 6.00 Build 0)  -->
<svg version="1.1" id="Layer_2" xmlns="http://www.w3.org/2000/svg" xmlns:xlink="http://www.w3.org/1999/xlink" x="0px" y="0px"
	 width="100px" height="100px" viewBox="0 0 100 100" enable-background="new 0 0 100 100" xml:space="preserve">
<g id="dai">
	<g>
		<path fill="#FFFFFF" d="M50,0.041L0.04,50.001L50,99.961l49.96-49.96L50,0.041z M50,10.321l33.7,36.42H60.87L50,35.871
			l-9.78,10.87H17.39L50,10.321z"/>
		<path fill="#FFFFFF" d="M50,0.041L0,50.001l0.06,0.02L50,66.301l49.94-16.28l0.06-0.02L50,0.041z M60.87,46.741L50,35.871
			l-9.78,10.87H17.39L50,10.321l33.7,36.42H60.87z"/>
		<path opacity="0.42" fill="#FFFFFF" enable-background="new    " d="M50,99.955V0.039l49.958,49.958L50,99.955L50,99.955z"/>
	</g>
</g>
</svg>
