<?xml version="1.0" encoding="utf-8"?>
<!-- Generator: Adobe Illustrator 23.0.0, SVG Export Plug-In . SVG Version: 6.00 Build 0)  -->
<svg version="1.1" id="Layer_2" xmlns="http://www.w3.org/2000/svg" xmlns:xlink="http://www.w3.org/1999/xlink" x="0px" y="0px"
	 width="100px" height="100px" viewBox="0 0 100 100" enable-background="new 0 0 100 100" xml:space="preserve">
<g id="erc20">
	<path fill="#FFFFFF" d="M78.004,65.931L48.888,100L19.772,65.931l29.116,10.784L78.004,65.931z"/>
	<path fill="#FFFFFF" d="M78.004,34.104L48.888,0.035L19.772,34.104L48.888,23.32L78.004,34.104z"/>
	<g>
		<path fill="#FFFFFF" d="M23.383,56.8h-9.336V42.708h9.336v2.432h-6.387v3.398h6.025v2.266h-6.025v3.555h6.387V56.8z"/>
		<path fill="#FFFFFF" d="M28.461,56.8h-2.949V42.708h5.82c1.608,0,2.865,0.4,3.77,1.201c0.885,0.794,1.328,1.891,1.328,3.291
			c0,0.918-0.225,1.732-0.674,2.441c-0.456,0.729-1.084,1.25-1.885,1.563L36.84,56.8H33.5l-2.627-5.156h-2.412V56.8z M28.461,49.505
			h2.588c0.742,0,1.322-0.199,1.738-0.596c0.41-0.397,0.615-0.947,0.615-1.65c0-0.684-0.215-1.23-0.645-1.641
			c-0.43-0.404-1.009-0.605-1.738-0.605h-2.559V49.505z"/>
		<path fill="#FFFFFF" d="M39.721,55.101c-1.198-1.303-1.797-3.086-1.797-5.352c0-2.259,0.602-4.04,1.807-5.342
			c1.191-1.295,2.813-1.943,4.863-1.943c1.706,0,3.135,0.488,4.287,1.465c1.159,0.99,1.793,2.269,1.904,3.838h-2.871
			c-0.137-0.866-0.508-1.559-1.113-2.08c-0.612-0.521-1.348-0.781-2.207-0.781c-1.113,0-2.002,0.433-2.666,1.299
			c-0.664,0.879-0.996,2.057-0.996,3.535c0,1.504,0.329,2.688,0.986,3.555c0.658,0.872,1.553,1.309,2.686,1.309
			c0.873,0,1.605-0.241,2.197-0.723c0.592-0.482,0.967-1.14,1.123-1.973h2.871c-0.163,1.568-0.804,2.818-1.924,3.75
			c-1.12,0.924-2.545,1.387-4.277,1.387C42.537,57.044,40.913,56.396,39.721,55.101z"/>
		<path fill="#FFFFFF" d="M52.407,52.396v-2.49h6.416v2.49H52.407z"/>
		<path fill="#FFFFFF" d="M60.864,46.946c0-1.334,0.481-2.425,1.445-3.271c0.97-0.853,2.224-1.279,3.76-1.279
			c1.478,0,2.686,0.384,3.623,1.152c0.925,0.762,1.387,1.735,1.387,2.92c0,0.801-0.261,1.598-0.781,2.393
			c-0.371,0.566-1.019,1.309-1.943,2.227l-3.438,3.311v0.059h6.357V56.8H61.03v-1.982l5.313-5.117
			c0.716-0.716,1.204-1.292,1.465-1.729c0.267-0.436,0.4-0.898,0.4-1.387c0-0.534-0.208-0.983-0.625-1.348
			c-0.43-0.365-0.967-0.547-1.611-0.547c-0.684,0-1.25,0.215-1.699,0.645c-0.449,0.423-0.674,0.96-0.674,1.611v0.049h-2.734V46.946z
			"/>
		<path fill="#FFFFFF" d="M74.38,55.13c-1.016-1.315-1.523-3.115-1.523-5.4c0-2.272,0.511-4.066,1.533-5.381
			c1.016-1.309,2.405-1.963,4.17-1.963s3.154,0.654,4.17,1.963s1.523,3.099,1.523,5.371c0,2.278-0.505,4.078-1.514,5.4
			c-1.016,1.328-2.409,1.992-4.18,1.992S75.396,56.451,74.38,55.13z M80.542,53.44c0.476-0.879,0.713-2.116,0.713-3.711
			c0-1.582-0.241-2.809-0.723-3.682c-0.476-0.866-1.133-1.299-1.973-1.299s-1.497,0.433-1.973,1.299
			c-0.488,0.879-0.732,2.106-0.732,3.682c0,1.588,0.241,2.825,0.723,3.711c0.476,0.872,1.136,1.309,1.982,1.309
			S80.066,54.313,80.542,53.44z"/>
	</g>
</g>
</svg>
