<?xml version="1.0" encoding="utf-8"?>
<!-- Generator: Adobe Illustrator 23.0.0, SVG Export Plug-In . SVG Version: 6.00 Build 0)  -->
<svg version="1.1" id="Layer_2" xmlns="http://www.w3.org/2000/svg" xmlns:xlink="http://www.w3.org/1999/xlink" x="0px" y="0px"
	 width="100px" height="100px" viewBox="0 0 100 100" enable-background="new 0 0 100 100" xml:space="preserve">
<g id="pax">
	<linearGradient id="SVGID_1_" gradientUnits="userSpaceOnUse" x1="1.818989e-12" y1="49.9909" x2="100" y2="49.9909">
		<stop  offset="0" style="stop-color:#02845D"/>
		<stop  offset="1" style="stop-color:#02D193"/>
	</linearGradient>
	<path fill="#02845D" d="M0,64.387c0.928-3.674,1.328-7.592,2.889-10.974c3.646-7.899,5.759-16.11,6.882-24.686
		c0.379-2.893,1.267-5.799,2.396-8.501C15.472,12.319,22.535,8.289,31.04,9.442c2.156,0.292,3.616-0.211,5.089-1.694
		c4.967-4.998,10.885-6.051,17.405-3.709c2.771,0.995,5.665,1.972,8.073,3.595c6.821,4.596,14.628,5.812,22.421,7.208
		c1.127,0.202,2.263,0.359,3.391,0.558c7.548,1.329,11.407,6.445,10.481,14.119c-0.33,2.736-0.811,5.495-1.624,8.119
		c-0.628,2.025-0.407,3.628,0.624,5.409c3.817,6.593,4.192,13.408,0.673,20.216c-0.883,1.708-2.25,3.331-3.773,4.502
		c-2.1,1.615-4.452,3.005-6.881,4.068c-9.346,4.089-17.151,10.288-24.418,17.291c-1.44,1.388-3.014,2.659-4.636,3.833
		c-6.538,4.734-13.668,5.53-20.802,1.938c-4.379-2.205-8.201-5.502-12.342-8.203c-1.211-0.79-2.624-1.32-4.005-1.786
		c-3.502-1.183-7.256-1.83-10.516-3.472C3.399,78.01,0.493,72.023,0,64.387z M48.02,75.851C62.277,75.9,74.005,64.154,74.067,49.763
		c0.071-16.442-11.524-27.581-29.47-26.589c-13.375,0.739-22.455,13.504-22.446,25.568C22.162,63.972,33.366,75.801,48.02,75.851z"
		/>
</g>
</svg>
