<svg id="Layer_7" xmlns="http://www.w3.org/2000/svg" xmlnsXlink="http://www.w3.org/1999/xlink"
	 width="424" height="510.9" viewBox="0 0 424 510.9">
	<path fill="#403352" d="M423.8,85.5c-0.2-6.8-5-12.6-11.8-13.5c-31.5-4.3-62.6-11.9-93.1-23C288.6,37.9,255,22.4,218.8,1.9	c-4.6-2.6-8.9-2.6-13.5,0c-36,20.4-69.3,35.9-99.9,47.1C74.9,60.1,43.8,67.8,12.5,72C5.7,72.9,1,78.8,0.2,85.5	c-3,128.4,25.1,233.5,84.1,315.2c32.1,44.5,72.4,80.6,120.9,108.2c3.8,2.8,9.6,2.5,14,0c48.2-28,88.4-63.9,120.4-108.2	C398.8,319.1,426.7,213.9,423.8,85.5z"
	/>
	<defs>
		<path id="SVGID_1_" d="M423.8,85.5c-0.2-6.8-5-12.6-11.8-13.5c-31.5-4.3-62.6-11.9-93.1-23C288.6,37.9,255,22.4,218.8,1.9 c-4.6-2.6-8.9-2.6-13.5,0c-36,20.4-69.3,35.9-99.9,47.1C74.9,60.1,43.8,67.8,12.5,72C5.7,72.9,1,78.8,0.2,85.5 c-3,128.4,25.1,233.5,84.1,315.2c32.1,44.5,72.4,80.6,120.9,108.2c3.8,2.8,9.6,2.5,14,0c48.2-28,88.4-63.9,120.4-108.2 C398.8,319.1,426.7,213.9,423.8,85.5z"
		/>
	</defs>
	<clipPath id="SVGID_2_">
		<use xlinkHref="#SVGID_1_" overflow="visible" />
	</clipPath>
	<linearGradient id="SVGID_3_" gradientUnits="userSpaceOnUse" x1="1481.164"
					y1="3274.578" x2="2214.443" y2="3274.578" gradientTransform="matrix(.7765 -.2235 -.2235 .7765 -281.628 -1777.728)">
		<stop offset="0" />
		<stop offset="1" stopOpacity="0.7" />
	</linearGradient>
	<path opacity="0.2" clipPath="url(#SVGID_2_)" fill="url(#SVGID_3_)" d="M685.8,340.3 L406.1,620L188.6,402.6c5.1-25.2,10.7-186.4,10.7-186.4s72-70.6,92.7-90.6C423.3,197.1,554.6,268.7,685.8,340.3z"
	/>
	<g>
		<path fill="#C23A76" d="M239.9,209.6l-46.1-1.1l88.1-79.6c4.5-4.5,11.9-4.2,16,0.7l18.6,22c1.8,3.7,1.4,8-1,11.3l-28.9,39.2 C275.7,216.8,258.2,209.8,239.9,209.6z"
		/>
		<path fill="#F24B93" d="M234.5,370.3L200,400.7c-7,6.2-18.1,1.2-18.1-8.2v-186l50.7,31.3c3.2,2,5.1,5.5,5.2,9.2l0.4,115.1 C238.2,365.3,236.9,368.3,234.5,370.3z"
		/>
		<path fill="#C23A76" d="M237.8,311.3v-64.4c0-3.7-1.9-7.1-5-9.1l-97.5-63l-26.7,35.9c-3.7,5-2.5,12.1,2.7,15.5L237.8,311.3z"
		/>
		<path fill="#F24B93" d="M270.8,216.9H111.3c-4.1,0-5.5-2.7-3.1-6l32.4-45.7c2-2.9,5.4-4.6,8.9-4.6h164.7c1.1,0,3,0,2.3,0.9 l-36.9,50.9C277.5,215.3,274.3,216.9,270.8,216.9z"
		/>
	</g>
	<linearGradient id="SVGID_4_" gradientUnits="userSpaceOnUse" x1="211.685"
					y1="512.197" x2="211.685" y2="218.02">
		<stop offset="0" stopColor="#fff" />
		<stop offset="0.462" stopColor="#fff" stopOpacity="0.955" />
		<stop offset="0.554" stopColor="#fff" stopOpacity="0.846" />
		<stop offset="0.64" stopColor="#fff" stopOpacity="0.666" />
		<stop offset="0.689" stopColor="#fff" stopOpacity="0.55" />
		<stop offset="0.908" stopColor="#fff" stopOpacity="0" />
	</linearGradient>
	<path fill="url(#SVGID_4_)" d="M17.644,255.42c3.669,14.366,7.909,28.301,12.72,41.806C43.857,335.105,56.539,369.565,79,400.667	c32.1,44.5,44.627,80.947,93.127,108.547c3.8,2.8,56.473,4.176,60.873,1.676c48.2-28,78.667-63.149,110.667-107.449	c21-28.946,33.995-63.602,47.14-98.47c5.703-15.127,10.669-30.81,14.9-47.047C419.213,206.082,4.571,204.236,17.644,255.42z"
	/>
</svg>