<?xml version="1.0" encoding="utf-8"?>
<!-- Generator: Adobe Illustrator 23.1.0, SVG Export Plug-In . SVG Version: 6.00 Build 0)  -->
<svg version="1.1" id="Layer_1" xmlns="http://www.w3.org/2000/svg" xmlns:xlink="http://www.w3.org/1999/xlink" x="0px" y="0px"
	 width="108px" height="24px" viewBox="0 0 108 24" enable-background="new 0 0 108 24" xml:space="preserve">
<g>
	<g>
		<path fill-rule="evenodd" clip-rule="evenodd" fill="#F01010" d="M11.994,24c6.607,0,12-5.393,12-12s-5.393-12-12-12
			s-12,5.393-12,12S5.387,24,11.994,24L11.994,24z"/>
		<path fill="#FEFEFE" d="M11.485,8.105H10.96h-0.494c-0.165-0.015-0.375-0.015-0.569-0.03c-0.06,0.015-0.075,0.075-0.09,0.15
			c-0.03,0.075,0,0.12,0.03,0.18l0.225,0.015c0.27,0.06,0.479,0.12,0.614,0.18c0.12,0.06,0.21,0.195,0.255,0.36
			c0.03,0.165,0.06,0.39,0.03,0.674c-0.015,0.39-0.03,0.839-0.045,1.378c-0.03,0.539-0.06,1.094-0.09,1.663
			c-0.045,0.884-0.12,3.056-0.36,3.685c-0.06,0.15-0.15,0.24-0.27,0.3c-0.12,0.06-0.27,0.105-0.449,0.135l-0.3,0.03
			c-0.06,0.045-0.075,0.09-0.06,0.18c0,0.06,0.015,0.12,0.075,0.18c0.24-0.03,0.464-0.045,0.704-0.06h0.704h0.764
			c0.27,0.015,0.509,0.03,0.734,0.06c0.06-0.045,0.09-0.105,0.09-0.18c0-0.075-0.015-0.12-0.075-0.18l-0.509-0.03
			c-0.18-0.03-0.3-0.06-0.39-0.135c-0.045-0.045-0.09-0.09-0.12-0.15c-0.105-0.27-0.105-0.704-0.105-0.989
			c0.015-0.569,0.015-1.139,0.045-1.723c0.015-0.569,0.03-1.064,0.045-1.483c0.03-0.39,0.06-0.809,0.075-1.213
			c0.03-0.404,0.045-0.809,0.06-1.213h0.03c0.15,0.315,0.3,0.629,0.434,0.974c0.15,0.33,0.3,0.674,0.434,0.989l1.243,2.637
			c0.12,0.225,0.24,0.494,0.39,0.839c0.165,0.345,0.33,0.674,0.479,1.004c0.075,0.18,0.15,0.345,0.21,0.509
			c0.015,0,0.12,0.33,0.12,0.375c0.075,0.075,0.195,0.075,0.27,0c0.105-0.27,0.225-0.554,0.36-0.824
			c0.36-0.779,0.719-1.528,1.139-2.292l1.199-2.382c0.09-0.21,0.18-0.419,0.315-0.659c0.12-0.27,0.255-0.509,0.36-0.704
			c0.105-0.225,0.165-0.375,0.21-0.434h0.015l0.045,5.723c0.015,0.285,0,0.509-0.03,0.674c-0.015,0.135-0.045,0.255-0.18,0.33
			c-0.06,0.09-0.21,0.12-0.449,0.15l-0.419,0.03c-0.03,0.045-0.045,0.09-0.03,0.18c0,0.06,0.015,0.12,0.075,0.18
			c0.27-0.03,0.569-0.045,0.854-0.06h0.809h0.779c0.285,0.015,0.554,0.03,0.839,0.06c0.045-0.045,0.075-0.105,0.075-0.18
			c0.015-0.075,0-0.12-0.045-0.18l-0.449-0.03c-0.195-0.03-0.345-0.075-0.434-0.18c-0.09-0.09-0.165-0.195-0.195-0.345
			c-0.015-0.165-0.03-0.375-0.03-0.599c-0.045-0.674-0.06-1.378-0.09-2.067c-0.015-0.734-0.045-1.438-0.06-2.112V9.738
			c0-0.315,0.015-0.554,0.045-0.734c0.045-0.165,0.135-0.315,0.27-0.404c0.12-0.075,0.345-0.135,0.644-0.18l0.27-0.015
			c0.045-0.03,0.06-0.09,0.045-0.18c0-0.06-0.03-0.12-0.06-0.15c-0.225,0.015-0.449,0.015-0.644,0.03h-0.569H19.32
			c-0.165-0.015-0.345-0.015-0.584-0.03c-0.03,0.315-0.135,0.659-0.3,1.079c-0.21,0.419-0.449,0.929-0.734,1.543l-1.303,2.607
			c-0.33,0.704-0.644,1.393-1.049,2.052h-0.045c-0.315-0.614-0.614-1.243-0.914-1.888l-1.573-3.146
			c-0.21-0.434-0.39-0.854-0.539-1.243c-0.135-0.39-0.18-0.734-0.165-1.004C11.889,8.09,11.694,8.09,11.485,8.105L11.485,8.105z
			 M3.904,15.131c0,0.479-0.03,0.839-0.06,1.079C3.799,16.689,3.5,16.839,3.05,16.869l-0.285,0.045
			c-0.09,0.09-0.09,0.285,0.015,0.36c0.584-0.045,1.124-0.06,1.708-0.06c0.614,0,1.199,0.03,1.828,0.06
			c0.03-0.045,0.06-0.105,0.075-0.18c0-0.09-0.015-0.15-0.06-0.18l-0.375-0.045c-0.3-0.015-0.509-0.075-0.629-0.165
			c0,0,0-0.015-0.015-0.015c-0.12-0.09-0.195-0.24-0.225-0.464c-0.045-0.24-0.06-0.599-0.045-1.079v-1.318
			c-0.404,0.03-0.794,0-1.124-0.06L3.904,15.131z M2.691,8.255C2.676,8.33,2.706,8.39,2.766,8.449L3.26,8.494
			c0.21,0.03,0.36,0.075,0.449,0.18c0.09,0.075,0.15,0.195,0.165,0.404c0.03,0.21,0.045,0.509,0.045,0.914v2.787
			c0.375,0.015,0.749,0.015,1.124,0v-3.85c-0.015-0.15,0-0.255,0.045-0.36c0.015-0.045,0.09-0.105,0.18-0.12
			c0.12-0.03,0.3-0.03,0.554-0.03c0.719,0.03,1.258,0.21,1.648,0.599c0.39,0.404,0.569,0.944,0.569,1.633
			c0.03,0.599-0.135,1.109-0.449,1.528c-0.285,0.345-0.689,0.614-1.258,0.749c-0.554,0.135-1.318,0.18-2.352,0.165
			c-0.914-0.015-1.888-0.075-2.966-0.18c1.184,0.24,2.067,0.404,2.637,0.464c0.929,0.12,1.828,0.09,2.682-0.03
			c0.434-0.06,0.824-0.18,1.184-0.315c0.345-0.15,0.674-0.345,1.034-0.599c0.21-0.15,0.404-0.39,0.569-0.719
			c0.135-0.3,0.21-0.659,0.225-1.094c-0.015-0.464-0.135-0.884-0.345-1.243c-0.195-0.36-0.449-0.629-0.764-0.839
			c-0.33-0.195-0.719-0.345-1.169-0.434c-0.434-0.075-0.944-0.12-1.528-0.12c-0.569,0-1.079,0-1.528,0.03
			C3.56,8.03,3.14,8.045,2.78,8.09C2.736,8.12,2.691,8.18,2.691,8.255L2.691,8.255z"/>
	</g>
	<g>
		<path fill="#F00F0F" d="M35.374,13.622c-0.377,0-0.393,0.027-0.393,0.393c0,1.466,0.855,2.715,2.412,2.715
			c0.478,0,0.887-0.143,1.334-0.712c0.143-0.043,0.244,0.043,0.26,0.175c-0.478,0.988-1.525,1.35-2.279,1.35
			c-0.946,0-1.684-0.409-2.104-0.956c-0.436-0.569-0.611-1.249-0.611-1.886c0-1.785,1.174-3.283,2.917-3.283
			c1.249,0,2.061,0.855,2.061,1.727c0,0.202-0.027,0.319-0.058,0.377c-0.043,0.085-0.244,0.101-0.855,0.101L35.374,13.622
			L35.374,13.622z M36.272,13.186c1.073,0,1.392-0.058,1.509-0.143c0.043-0.027,0.085-0.085,0.085-0.276
			c0-0.409-0.276-0.914-1.116-0.914c-0.855,0-1.599,0.786-1.61,1.265c0,0.027,0,0.074,0.101,0.074h1.031V13.186z"/>
		<path fill="#F00F0F" d="M40.655,13.17c0-0.569,0-0.638-0.393-0.898l-0.133-0.085c-0.058-0.058-0.058-0.218,0.016-0.26
			c0.335-0.117,1.105-0.494,1.466-0.712c0.074,0.016,0.117,0.043,0.117,0.101v0.845c0,0.074,0.016,0.117,0.043,0.133
			c0.51-0.42,1.057-0.871,1.599-0.871c0.361,0,0.654,0.234,0.654,0.579c0,0.478-0.393,0.669-0.627,0.669
			c-0.143,0-0.218-0.043-0.319-0.101c-0.218-0.143-0.436-0.234-0.638-0.234c-0.234,0-0.409,0.133-0.521,0.292
			c-0.143,0.202-0.191,0.627-0.191,1.116v1.976c0,1.047,0.027,1.222,0.579,1.265l0.521,0.043c0.101,0.074,0.074,0.319-0.027,0.361
			c-0.68-0.027-1.105-0.043-1.61-0.043c-0.521,0-0.956,0.016-1.334,0.043c-0.101-0.043-0.133-0.292-0.027-0.361l0.276-0.043
			c0.537-0.085,0.553-0.218,0.553-1.265v-2.55H40.655z"/>
		<path fill="#F00F0F" d="M46.871,12.225c-0.244,0-0.244,0.027-0.244,0.42v3.066c0,1.047,0.027,1.222,0.553,1.265l0.521,0.043
			c0.101,0.074,0.074,0.319-0.027,0.361c-0.654-0.027-1.073-0.043-1.583-0.043c-0.521,0-0.956,0.016-1.392,0.043
			c-0.101-0.043-0.133-0.292-0.027-0.361l0.335-0.043c0.537-0.074,0.553-0.218,0.553-1.265v-3.066c0-0.393,0-0.42-0.292-0.42h-0.51
			c-0.085-0.058-0.101-0.191-0.043-0.276l0.627-0.303c0.117-0.058,0.218-0.143,0.218-0.292c0-0.845,0.101-1.743,0.452-2.556
			c0.361-0.829,1.174-1.844,2.614-1.844c0.77,0,1.424,0.351,1.424,0.871c0,0.292-0.276,0.521-0.553,0.521
			c-0.159,0-0.244-0.058-0.351-0.175c-0.276-0.319-0.68-0.638-1.164-0.638c-0.452,0-0.813,0.276-1.031,0.797
			c-0.26,0.669-0.319,1.727-0.319,2.455v0.42c0,0.393,0,0.409,0.244,0.409h1.658c0.159,0.143,0.058,0.553-0.101,0.611L46.871,12.225
			L46.871,12.225z"/>
		<path fill="#F00F0F" d="M50.267,13.622c-0.377,0-0.393,0.027-0.393,0.393c0,1.466,0.855,2.715,2.412,2.715
			c0.478,0,0.887-0.143,1.334-0.712c0.143-0.043,0.244,0.043,0.26,0.175c-0.478,0.988-1.525,1.35-2.279,1.35
			c-0.946,0-1.684-0.409-2.104-0.956c-0.436-0.569-0.611-1.249-0.611-1.886c0-1.785,1.174-3.283,2.917-3.283
			c1.249,0,2.061,0.855,2.061,1.727c0,0.202-0.027,0.319-0.058,0.377c-0.043,0.085-0.244,0.101-0.855,0.101L50.267,13.622
			L50.267,13.622z M51.17,13.186c1.073,0,1.392-0.058,1.509-0.143c0.043-0.027,0.085-0.085,0.085-0.276
			c0-0.409-0.276-0.914-1.116-0.914c-0.855,0-1.599,0.786-1.61,1.265c0,0.027,0,0.074,0.101,0.074h1.031V13.186z"/>
		<path fill="#F00F0F" d="M59.458,11.661c0.117,0.101,0.218,0.335,0.218,0.579c0,0.26-0.143,0.537-0.319,0.537
			c-0.074,0-0.143-0.027-0.202-0.101c-0.319-0.393-0.855-0.77-1.45-0.77c-1.015,0-2.003,0.797-2.003,2.338
			c0,1.132,0.786,2.481,2.338,2.481c0.845,0,1.275-0.377,1.61-0.871c0.117-0.027,0.244,0.074,0.26,0.202
			c-0.494,1.073-1.583,1.482-2.423,1.482c-0.77,0-1.482-0.244-1.987-0.739c-0.51-0.494-0.845-1.206-0.845-2.146
			c0-1.567,1.105-3.236,3.512-3.236C58.502,11.412,59.07,11.486,59.458,11.661z"/>
		<path fill="#F00F0F" d="M62.55,12.225c-0.244,0-0.26,0.043-0.26,0.351v2.715c0,0.839,0.101,1.61,1.063,1.61
			c0.143,0,0.276-0.027,0.393-0.074c0.133-0.043,0.319-0.202,0.361-0.202c0.117,0,0.175,0.159,0.143,0.244
			c-0.26,0.303-0.786,0.669-1.525,0.669c-1.249,0-1.509-0.696-1.509-1.567v-3.326c0-0.393-0.016-0.42-0.303-0.42h-0.409
			c-0.085-0.058-0.101-0.218-0.043-0.303c0.42-0.133,0.786-0.319,0.93-0.452c0.191-0.175,0.462-0.569,0.611-0.855
			c0.074-0.027,0.244-0.027,0.303,0.074v0.654c0,0.26,0.016,0.276,0.26,0.276h1.61c0.175,0.133,0.143,0.521,0.016,0.611H62.55
			V12.225z"/>
		<path fill="#F00F0F" d="M73.676,13.457c0.335,0.68,0.654,1.35,1.004,1.987h0.027c0.393-0.68,0.754-1.44,1.116-2.178l1.365-2.773
			c0.654-1.323,1.073-2.12,1.105-2.789c0.494,0.043,0.797,0.043,1.089,0.043c0.361,0,0.845-0.016,1.291-0.043
			c0.085,0.058,0.085,0.303,0.016,0.361l-0.303,0.027c-0.914,0.085-1.031,0.361-1.015,1.381c0.027,1.541,0.043,4.224,0.159,6.317
			c0.043,0.728,0.027,1.116,0.712,1.174l0.462,0.043c0.085,0.085,0.074,0.303-0.027,0.361c-0.595-0.027-1.19-0.043-1.711-0.043
			c-0.51,0-1.164,0.016-1.759,0.043c-0.101-0.074-0.117-0.276-0.027-0.361l0.42-0.043c0.712-0.074,0.712-0.303,0.712-1.233
			l-0.043-6.057h-0.027c-0.101,0.159-0.654,1.323-0.946,1.886l-1.291,2.54c-0.654,1.275-1.307,2.641-1.567,3.31
			c-0.027,0.043-0.085,0.058-0.143,0.058c-0.027,0-0.101-0.016-0.133-0.058c-0.244-0.77-0.946-2.194-1.275-2.906l-1.307-2.8
			c-0.303-0.669-0.611-1.424-0.93-2.093h-0.027c-0.058,0.898-0.101,1.743-0.143,2.582c-0.043,0.887-0.101,2.178-0.101,3.411
			c0,1.073,0.085,1.307,0.654,1.35l0.553,0.043c0.101,0.085,0.085,0.319-0.016,0.361c-0.494-0.027-1.057-0.043-1.61-0.043
			c-0.462,0-0.988,0.016-1.482,0.043c-0.085-0.074-0.117-0.292-0.027-0.361l0.319-0.043c0.611-0.085,0.813-0.175,0.898-1.19
			c0.085-0.956,0.159-1.759,0.244-3.193c0.074-1.206,0.133-2.439,0.159-3.236c0.027-0.914-0.085-1.132-0.972-1.249l-0.234-0.027
			c-0.074-0.085-0.058-0.303,0.058-0.361c0.436,0.027,0.786,0.043,1.148,0.043c0.335,0,0.728,0,1.206-0.043
			c-0.058,0.569,0.303,1.466,0.754,2.396L73.676,13.457z"/>
		<path fill="#F00F0F" d="M87.469,14.419c0,1.817-1.249,3.124-3.066,3.124c-1.668,0-2.975-1.174-2.975-2.991
			c0-1.828,1.381-3.135,3.092-3.135C86.146,11.412,87.469,12.634,87.469,14.419z M84.345,11.847c-0.956,0-1.668,0.914-1.668,2.513
			c0,1.323,0.595,2.747,1.876,2.747c1.275,0,1.668-1.334,1.668-2.455C86.22,13.415,85.726,11.847,84.345,11.847z"/>
		<path fill="#F00F0F" d="M89.397,13.17c0-0.569,0-0.638-0.393-0.898l-0.133-0.085c-0.058-0.058-0.058-0.218,0.016-0.26
			c0.335-0.117,1.164-0.494,1.45-0.712c0.058,0,0.133,0.027,0.159,0.101c-0.027,0.335-0.027,0.553-0.027,0.68
			c0,0.085,0.058,0.159,0.159,0.159c0.611-0.377,1.291-0.739,2.035-0.739c1.206,0,1.7,0.829,1.7,1.801v2.497
			c0,1.047,0.027,1.19,0.553,1.265l0.319,0.043c0.101,0.074,0.074,0.319-0.027,0.361c-0.436-0.027-0.855-0.043-1.365-0.043
			c-0.521,0-0.956,0.016-1.35,0.043c-0.101-0.043-0.133-0.292-0.027-0.361l0.276-0.043c0.537-0.085,0.553-0.218,0.553-1.265v-2.162
			c0-0.829-0.377-1.44-1.365-1.44c-0.553,0-1.031,0.234-1.233,0.51c-0.191,0.244-0.218,0.452-0.218,0.871v2.221
			c0,1.047,0.027,1.174,0.553,1.265l0.26,0.043c0.101,0.074,0.074,0.319-0.027,0.361c-0.393-0.027-0.813-0.043-1.323-0.043
			c-0.521,0-0.956,0.016-1.365,0.043c-0.101-0.043-0.133-0.292-0.027-0.361l0.303-0.043c0.537-0.074,0.553-0.218,0.553-1.265V13.17
			H89.397z"/>
		<path fill="#F00F0F" d="M97.489,13.622c-0.377,0-0.393,0.027-0.393,0.393c0,1.466,0.855,2.715,2.412,2.715
			c0.478,0,0.887-0.143,1.334-0.712c0.143-0.043,0.244,0.043,0.26,0.175c-0.478,0.988-1.525,1.35-2.279,1.35
			c-0.946,0-1.684-0.409-2.104-0.956c-0.436-0.569-0.611-1.249-0.611-1.886c0-1.785,1.174-3.283,2.917-3.283
			c1.249,0,2.061,0.855,2.061,1.727c0,0.202-0.027,0.319-0.058,0.377c-0.043,0.085-0.244,0.101-0.855,0.101L97.489,13.622
			L97.489,13.622z M98.387,13.186c1.073,0,1.392-0.058,1.509-0.143c0.043-0.027,0.085-0.085,0.085-0.276
			c0-0.409-0.276-0.914-1.116-0.914c-0.855,0-1.599,0.786-1.61,1.265c0,0.027,0,0.074,0.101,0.074h1.031V13.186z"/>
		<path fill="#F00F0F" d="M101.697,20.327c0-0.393,0.26-0.579,0.579-0.579h0.276c0.234,0,0.377-0.101,0.478-0.26
			c0.42-0.654,0.712-1.265,0.839-1.61c0.043-0.117,0.143-0.42,0.143-0.627c0-0.292-0.058-0.462-0.244-1.004l-1.126-3.108
			c-0.244-0.68-0.351-1.031-0.855-1.132l-0.361-0.074c-0.085-0.074-0.074-0.319,0.043-0.361c0.462,0.027,0.898,0.043,1.381,0.043
			c0.393,0,0.797-0.016,1.265-0.043c0.117,0.043,0.133,0.292,0.027,0.361l-0.361,0.074c-0.202,0.043-0.319,0.085-0.319,0.191
			c0,0.175,0.335,1.116,0.42,1.365l0.462,1.334c0.085,0.234,0.361,1.004,0.42,1.031c0.043-0.027,0.276-0.478,0.537-1.073
			l0.494-1.148c0.319-0.754,0.51-1.291,0.51-1.45c0-0.101-0.085-0.202-0.351-0.244l-0.452-0.074
			c-0.101-0.074-0.085-0.319,0.027-0.361c0.462,0.027,0.898,0.043,1.275,0.043c0.361,0,0.696-0.016,1.105-0.043
			c0.117,0.058,0.133,0.276,0.027,0.361l-0.244,0.043c-0.478,0.085-0.739,0.51-1.233,1.541l-0.813,1.668
			c-0.478,0.972-1.668,3.501-2.38,5.085c-0.244,0.553-0.595,0.68-0.93,0.68C101.915,20.954,101.697,20.688,101.697,20.327z"/>
		<path fill="#F00F0F" d="M30.858,7.586c-0.112,0-0.654,0-0.983,0c-0.005,0-0.011,0-0.016,0c-0.074,0-0.149,0-0.218,0l0,0l0,0
			c-1.094,0-1.934,0.021-2.651,0.117c-0.117,0.058-0.133,0.276-0.027,0.361l0.521,0.058c0.654,0.074,0.68,0.319,0.68,1.551v3.013
			c0.154,0,0.367-0.005,0.654-0.016c0.218-0.011,0.398-0.027,0.542-0.043v-4.07c0-0.462,0.016-0.521,0.786-0.521
			c1.509,0,2.338,0.914,2.338,2.322c0,0.94-0.313,1.674-1.121,2.104c-0.021,0.011-0.043,0.016-0.058,0.027
			c-0.319,0.165-0.659,0.244-0.77,0.266c-0.266,0.064-0.531,0.122-1.45,0.165c-0.967,0.043-1.397,0.027-1.791,0
			c-1.036-0.069-1.753-0.244-1.753-0.244c0.579,0.26,1.445,0.553,3.544,0.553c0,0,1.408,0.058,2.375-0.122
			c0.34-0.064,0.563-0.122,0.659-0.165c0.17-0.064,0.377-0.122,0.6-0.266c0.112-0.064,0.356-0.223,0.584-0.494
			c0.563-0.638,0.622-1.498,0.622-1.642C33.908,8.288,31.825,7.586,30.858,7.586z"/>
		<g>
			<path fill="#F00F0F" d="M30.698,17.017l-0.393-0.043c-0.93-0.101-0.956-0.292-0.956-1.817v-1.727
				c-0.17,0.016-0.398,0.027-0.669,0.021c-0.228-0.005-0.398-0.016-0.521-0.021v1.727c0,1.525-0.027,1.7-0.871,1.817l-0.303,0.043
				c-0.085,0.085-0.058,0.319,0.027,0.361c0.638-0.027,1.164-0.043,1.769-0.043c0.579,0,1.057,0.016,1.886,0.043
				C30.757,17.336,30.783,17.091,30.698,17.017z"/>
		</g>
	</g>
</g>
</svg>
