<svg id="Layer_1" xmlns="http://www.w3.org/2000/svg" width="64" height="64"
	 viewBox="0 0 64 64">
	<linearGradient id="SVGID_1_" gradientUnits="userSpaceOnUse" y1="32" x2="64"
					y2="32">
		<stop offset="0" stopColor="#864DD9" />
		<stop offset="1" stopColor="#864DD9" />
	</linearGradient>
	<path fill="url(#SVGID_1_)" d="M64,39.375V46.5c0,1.381-1.119,2.5-2.5,2.5l-6.858,0c-1.308,0-2.499-0.941-2.629-2.242	C51.863,45.261,53.034,44,54.5,44H59l0-4.483c0-1.308,0.941-2.499,2.242-2.629C62.739,36.738,64,37.909,64,39.375z M29.758,27.112	C31.059,26.982,32,25.79,32,24.483L32,19h2.5c1.381,0,2.5-1.119,2.5-2.5v-14c0-1.466-1.261-2.637-2.758-2.487	C32.941,0.143,32,1.334,32,2.641L32,4.5l-2.358,0c-1.308,0-2.499,0.941-2.629,2.242C26.863,8.239,28.034,9.5,29.5,9.5H32V14h-2.5	c-1.381,0-2.5,1.119-2.5,2.5v8.125C27,26.091,28.261,27.262,29.758,27.112z M2.758,36.862C4.059,36.732,5,35.54,5,34.233l0-2.358	l2.483,0c1.308,0,2.499-0.941,2.629-2.242c0.15-1.497-1.021-2.758-2.487-2.758H2.5c-1.381,0-2.5,1.119-2.5,2.5v5	C0,35.841,1.261,37.012,2.758,36.862z M39.642,31.875l6.608,0l0,7.359c0,1.307,0.941,2.499,2.242,2.629	c1.497,0.15,2.758-1.021,2.758-2.487v-2.5l2.483,0c1.308,0,2.499-0.941,2.629-2.242c0.15-1.497-1.021-2.758-2.487-2.758H51.25v-2.5	c0-1.381-1.119-2.5-2.5-2.5H39.5c-1.466,0-2.637,1.261-2.487,2.758C37.143,30.934,38.335,31.875,39.642,31.875z M62.122,26.95	c-1.861-0.449-3.495,1.185-3.047,3.047c0.211,0.875,0.928,1.592,1.803,1.803c1.861,0.449,3.495-1.185,3.047-3.047	C63.714,27.878,62.997,27.161,62.122,26.95z M39.242,36.888C37.941,37.018,37,38.21,37,39.517L37,44l-1.108,0	c-1.308,0-2.499,0.941-2.629,2.242C33.113,47.739,34.284,49,35.75,49h3.75c1.381,0,2.5-1.119,2.5-2.5v-7.125	C42,37.909,40.739,36.738,39.242,36.888z M39.358,59L37,59v-2.5c0-1.381-1.119-2.5-2.5-2.5H32l0-2.358	c0-1.308-0.941-2.499-2.242-2.629C28.261,48.863,27,50.034,27,51.5v5c0,1.381,1.119,2.5,2.5,2.5H32v2.5c0,1.381,1.119,2.5,2.5,2.5h5	c1.466,0,2.637-1.261,2.487-2.758C41.857,59.941,40.665,59,39.358,59z M49.487,53.742c-0.13-1.301-1.322-2.242-2.629-2.242h-0.965	c-1.308,0-2.499,0.941-2.629,2.242c-0.15,1.497,1.021,2.758,2.487,2.758H47C48.466,56.5,49.637,55.239,49.487,53.742z M61.358,59	L59.5,59l0-2.358c0-1.308-0.941-2.499-2.242-2.629c-1.497-0.15-2.758,1.021-2.758,2.487V59l-4.858,0	c-1.308,0-2.499,0.941-2.629,2.242C46.863,62.739,48.034,64,49.5,64h12c1.466,0,2.637-1.261,2.487-2.758	C63.857,59.941,62.665,59,61.358,59z M29.758,41.487C31.059,41.357,32,40.165,32,38.858l0-4.483c0-1.381-1.119-2.5-2.5-2.5h-9	l0-2.359c0-1.307-0.941-2.499-2.242-2.629c-1.497-0.15-2.758,1.021-2.758,2.487v2.5l-1.108,0c-1.308,0-2.499,0.941-2.629,2.242	c-0.15,1.497,1.021,2.758,2.487,2.758H27V39C27,40.466,28.261,41.637,29.758,41.487z M0,17.5V5c0-2.761,2.239-5,5-5h12.5	c2.761,0,5,2.239,5,5v12.5c0,2.761-2.239,5-5,5H5C2.239,22.5,0,20.262,0,17.5z M5,15c0,1.381,1.119,2.5,2.5,2.5H15	c1.381,0,2.5-1.119,2.5-2.5V7.5C17.5,6.119,16.381,5,15,5H7.5C6.119,5,5,6.119,5,7.5V15z M64,5v12.5c0,2.761-2.239,5-5,5H46.5	c-2.761,0-5-2.239-5-5V5c0-2.761,2.239-5,5-5H59C61.761,0,64,2.239,64,5z M59,7.5C59,6.119,57.881,5,56.5,5H49	c-1.381,0-2.5,1.119-2.5,2.5V15c0,1.381,1.119,2.5,2.5,2.5h7.5c1.381,0,2.5-1.119,2.5-2.5V7.5z M22.5,46.5V59c0,2.761-2.239,5-5,5H5	c-2.761,0-5-2.239-5-5V46.5c0-2.761,2.239-5,5-5h12.5C20.261,41.5,22.5,43.739,22.5,46.5z M17.5,49c0-1.381-1.119-2.5-2.5-2.5H7.5	C6.119,46.5,5,47.619,5,49v7.5C5,57.881,6.119,59,7.5,59H15c1.381,0,2.5-1.119,2.5-2.5V49z"
	/>
</svg>