<svg id="Layer_1" xmlns="http://www.w3.org/2000/svg" width="1213.88" height="1118"
	 viewBox="0 0 1213.88 1118">
	<linearGradient id="SVGID_1_" gradientUnits="userSpaceOnUse" y1="559"
					x2="1213.88" y2="559">
		<stop offset="0" stopColor="#3ac058" />
		<stop offset="1" stopColor="#27e3ae" />
	</linearGradient>
	<path fill="url(#SVGID_1_)" d="M730.32,375.42V226.66h340.18V0H144.18v226.66H484.4V375.3C207.9,388,0,442.76,0,508.36	S208,628.72,484.4,641.5V1118h246V641.46c276-12.74,483.48-67.46,483.48-133s-207.48-120.26-483.48-133 M730.4,601.1v-0.12	c-6.94,0.44-42.6,2.58-122,2.58c-63.48,0-108.14-1.8-123.88-2.62v0.2C240.24,590.32,57.9,547.78,57.9,496.88	s182.36-93.38,426.62-104.22v166.1c16,1.1,61.76,3.8,124.92,3.8c75.86,0,114-3.16,121-3.8v-166.1	c243.8,10.86,425.72,53.44,425.72,104.16s-182,93.32-425.72,104.18"
	/>
</svg>